#!OML:ASF E:\pregnant2\Project 1\Capture day 1\Session 1\pregnant2.ASF
:FULLY-SPECIFIED
:DEGREES
1125
root -13.9851 17.105 27.4431 -513.757 34.3309 536.235
lowerback -17.9878 -5.08503 -4.35757
upperback -15.5454 -3.6171 1.41951
thorax -6.44613 -0.242375 3.38385
lowerneck 1.61336 -18.2632 -23.3277
upperneck 24.3388 -25.3946 9.27988
head 12.0392 -12.7375 3.60433
rclavicle 8.54029e-014 2.24627e-014
rhumerus -43.7425 17.6031 -96.1581
rradius 37.813
rwrist 7.49592
rhand -14.0837 -14.0653
rfingers 7.12502
rthumb 192.048 136.302
lclavicle 8.54029e-014 2.24627e-014
lhumerus -52.6288 9.13312 78.7309
lradius 28.9376
lwrist -4.95019
lhand -7.5301 30.2861
lfingers 7.12502
lthumb 198.361 -120.56
rfemur -30.4801 16.4195 11.2049
rtibia 31.7784
rfoot -23.2682 -14.5023
rtoes -6.71781
lfemur -51.1302 -11.41 -10.2518
ltibia 26.5269
lfoot -2.18279 13.5608
ltoes -21.4133
1126
root -13.9859 17.0987 27.3339 -514.045 34.694 535.81
lowerback -17.9751 -5.17137 -4.69286
upperback -15.5863 -3.6902 1.39759
thorax -6.47712 -0.247991 3.53816
lowerneck 1.61379 -18.2065 -23.3237
upperneck 24.281 -25.2737 9.12602
head 11.9695 -12.7001 3.5782
rclavicle 2.32081e-014 1.19271e-015
rhumerus -44.0183 16.8637 -95.6346
rradius 37.348
rwrist 7.553
rhand -14.2554 -14.2647
rfingers 7.12502
rthumb 191.883 136.092
lclavicle 2.32081e-014 1.19271e-015
lhumerus -52.5111 9.20288 78.7364
lradius 28.4209
lwrist -5.72749
lhand -7.25911 30.218
lfingers 7.12502
lthumb 198.622 -120.653
rfemur -30.8107 15.6619 10.9159
rtibia 33.2285
rfoot -23.2896 -14.0752
rtoes -7.4106
lfemur -50.8409 -10.7119 -11.6422
ltibia 27.0105
lfoot -2.81242 12.7513
ltoes -21.5019
1127
root -13.9879 17.0962 27.2262 -514.258 35.0597 535.428
lowerback -18.0103 -5.23625 -4.94585
upperback -15.6308 -3.73854 1.36818
thorax -6.49494 -0.247373 3.63985
lowerneck 1.59974 -18.1519 -23.2839
upperneck 24.205 -25.1485 8.94535
head 11.8853 -12.6602 3.53909
rclavicle -6.11263e-015 4.37326e-015
rhumerus -44.2734 16.1284 -95.1005
rradius 36.8437
rwrist 7.57212
rhand -14.4063 -14.4542
rfingers 7.12502
rthumb 191.737 135.895
lclavicle -6.11263e-015 4.37326e-015
lhumerus -52.3389 9.226 78.7507
lradius 27.8865
lwrist -6.48556
lhand -7.01816 30.1547
lfingers 7.12502
lthumb 198.853 -120.739
rfemur -31.2663 14.8446 10.6574
rtibia 34.7484
rfoot -23.1314 -13.6076
rtoes -8.09796
lfemur -50.5924 -10.1709 -12.8291
ltibia 27.4094
lfoot -3.39323 12.1918
ltoes -21.518
1128
root -13.9909 17.0971 27.1199 -514.418 35.4163 535.085
lowerback -18.0663 -5.28811 -5.1304
upperback -15.6745 -3.77576 1.33812
thorax -6.50574 -0.247103 3.70329
lowerneck 1.56569 -18.0986 -23.2198
upperneck 24.1124 -25.0193 8.74936
head 11.792 -12.6177 3.49151
rclavicle 3.7123e-014 6.20208e-014
rhumerus -44.4849 15.3806 -94.5462
rradius 36.2596
rwrist 7.59467
rhand -14.5615 -14.5803
rfingers 7.12502
rthumb 191.588 135.76
lclavicle 3.7123e-014 6.20208e-014
lhumerus -52.1324 9.26265 78.7304
lradius 27.3673
lwrist -7.25732
lhand -6.76968 30.1268
lfingers 7.12502
lthumb 199.092 -120.79
rfemur -31.8215 14.017 10.4289
rtibia 36.3404
rfoot -22.7899 -13.1531
rtoes -8.71989
lfemur -50.3614 -9.79544 -13.8239
ltibia 27.7152
lfoot -3.88538 11.8579
ltoes -21.4027
1129
root -13.9941 17.1005 27.0154 -514.532 35.7696 534.802
lowerback -18.1188 -5.31884 -5.24581
upperback -15.7163 -3.79451 1.31108
thorax -6.52149 -0.243851 3.73412
lowerneck 1.50126 -18.0536 -23.144
upperneck 24.0209 -24.8954 8.54114
head 11.7027 -12.5765 3.43432
rclavicle 1.56543e-014 7.7526e-015
rhumerus -44.665 14.633 -93.9775
rradius 35.6003
rwrist 7.61887
rhand -14.7636 -14.6716
rfingers 7.12502
rthumb 191.393 135.658
lclavicle 1.56543e-014 7.7526e-015
lhumerus -51.8756 9.2613 78.7172
lradius 26.8333
lwrist -7.96089
lhand -6.49779 30.1322
lfingers 7.12502
lthumb 199.354 -120.811
rfemur -32.462 13.2148 10.2484
rtibia 38.0024
rfoot -22.2505 -12.7492
rtoes -9.26628
lfemur -50.1323 -9.54894 -14.6407
ltibia 27.943
lfoot -4.28833 11.7132
ltoes -21.1449
1130
root -13.9974 17.1066 26.9126 -514.632 36.1107 534.568
lowerback -18.1494 -5.33539 -5.3005
upperback -15.742 -3.80912 1.28514
thorax -6.53319 -0.247105 3.7338
lowerneck 1.41326 -18.0112 -23.0487
upperneck 23.9005 -24.7746 8.33988
head 11.6056 -12.5346 3.3753
rclavicle 1.55052e-014 4.03533e-014
rhumerus -44.806 13.9174 -93.417
rradius 34.8714
rwrist 7.65901
rhand -14.9921 -14.75
rfingers 7.12502
rthumb 191.172 135.567
lclavicle 1.55052e-014 4.03533e-014
lhumerus -51.5793 9.23822 78.6971
lradius 26.3103
lwrist -8.61906
lhand -6.25379 30.1438
lfingers 7.12502
lthumb 199.588 -120.823
rfemur -33.1466 12.4597 10.1205
rtibia 39.7249
rfoot -21.506 -12.4391
rtoes -9.77902
lfemur -49.8852 -9.43165 -15.2983
ltibia 28.1175
lfoot -4.62788 11.7309
ltoes -20.7066
1131
root -14.0006 17.1137 26.8121 -514.719 36.4688 534.393
lowerback -18.1483 -5.33049 -5.31074
upperback -15.7528 -3.80916 1.26577
thorax -6.54748 -0.249811 3.7192
lowerneck 1.31635 -17.9648 -22.9545
upperneck 23.7405 -24.6547 8.17099
head 11.5006 -12.491 3.32745
rclavicle 1.49089e-014 4.6118e-014
rhumerus -44.911 13.2482 -92.8695
rradius 34.0806
rwrist 7.72082
rhand -15.2426 -14.8374
rfingers 7.12502
rthumb 190.931 135.467
lclavicle 1.49089e-014 4.6118e-014
lhumerus -51.2612 9.21202 78.6641
lradius 25.8174
lwrist -9.23623
lhand -6.05991 30.1571
lfingers 7.12502
lthumb 199.775 -120.829
rfemur -33.8807 11.7757 10.0427
rtibia 41.5054
rfoot -20.5636 -12.2251
rtoes -10.1634
lfemur -49.615 -9.368 -15.8446
ltibia 28.2683
lfoot -4.93014 11.8601
ltoes -20.2664
1132
root -14.0037 17.122 26.7126 -514.792 36.8834 534.272
lowerback -18.1422 -5.28919 -5.26987
upperback -15.7412 -3.77466 1.23638
thorax -6.54503 -0.244518 3.67031
lowerneck 1.21122 -17.9177 -22.846
upperneck 23.5371 -24.5423 8.03654
head 11.385 -12.4475 3.28871
rclavicle 6.89783e-014 3.43897e-014
rhumerus -44.9688 12.6178 -92.3472
rradius 33.2369
rwrist 7.8311
rhand -15.4581 -14.9073
rfingers 7.12502
rthumb 190.723 135.386
lclavicle 6.89783e-014 3.43897e-014
lhumerus -50.9226 9.16677 78.6137
lradius 25.3744
lwrist -9.82497
lhand -5.88548 30.1976
lfingers 7.12502
lthumb 199.942 -120.806
rfemur -34.67 11.162 9.99793
rtibia 43.3353
rfoot -19.4346 -12.0735
rtoes -10.4228
lfemur -49.3223 -9.33535 -16.2972
ltibia 28.4115
lfoot -5.22013 12.1096
ltoes -19.7379
1133
root -14.0063 17.1301 26.6157 -514.87 37.3213 534.181
lowerback -18.1177 -5.22516 -5.21076
upperback -15.7104 -3.7195 1.1991
thorax -6.53328 -0.234308 3.60631
lowerneck 1.10871 -17.8718 -22.7316
upperneck 23.295 -24.4406 7.93423
head 11.2604 -12.4063 3.25943
rclavicle 4.56211e-014 -2.36554e-014
rhumerus -44.9649 11.9672 -91.8058
rradius 32.326
rwrist 8.04764
rhand -15.6038 -14.9467
rfingers 7.12502
rthumb 190.582 135.34
lclavicle 4.56211e-014 -2.36554e-014
lhumerus -50.5802 9.09604 78.5663
lradius 24.9879
lwrist -10.3918
lhand -5.8839 30.1896
lfingers 7.12502
lthumb 199.944 -120.814
rfemur -35.508 10.5888 9.98592
rtibia 45.2101
rfoot -18.1582 -11.9814
rtoes -10.3516
lfemur -49.0159 -9.32825 -16.6868
ltibia 28.558
lfoot -5.50956 12.4297
ltoes -19.1938
1134
root -14.0082 17.1375 26.5208 -514.966 37.7669 534.096
lowerback -18.0767 -5.14998 -5.15382
upperback -15.6631 -3.65514 1.15542
thorax -6.51182 -0.22242 3.53846
lowerneck 1.02344 -17.822 -22.6203
upperneck 23.0079 -24.3431 7.86226
head 11.122 -12.366 3.24277
rclavicle -8.84592e-014 -3.61788e-014
rhumerus -44.9118 11.2991 -91.2361
rradius 31.3771
rwrist 8.40663
rhand -15.6136 -14.9256
rfingers 7.12502
rthumb 190.573 135.36
lclavicle -8.84592e-014 -3.61788e-014
lhumerus -50.2467 9.01712 78.5204
lradius 24.6717
lwrist -10.9392
lhand -6.02153 30.1809
lfingers 7.12502
lthumb 199.812 -120.809
rfemur -36.3799 10.0374 9.99148
rtibia 47.1139
rfoot -16.7842 -11.9345
rtoes -9.86573
lfemur -48.692 -9.34327 -17.047
ltibia 28.7055
lfoot -5.80575 12.7919
ltoes -18.6712
1135
root -14.0094 17.144 26.4289 -515.052 38.2282 534.016
lowerback -18.0422 -5.06678 -5.09661
upperback -15.609 -3.58092 1.1052
thorax -6.48034 -0.206823 3.46444
lowerneck 0.918176 -17.7744 -22.4893
upperneck 22.7234 -24.2436 7.77648
head 10.984 -12.3235 3.21806
rclavicle -1.08338e-014 -3.8763e-014
rhumerus -44.8165 10.6116 -90.6464
rradius 30.4061
rwrist 8.92115
rhand -15.5041 -14.8824
rfingers 7.12502
rthumb 190.679 135.409
lclavicle -1.08338e-014 -3.8763e-014
lhumerus -49.9281 8.89492 78.4988
lradius 24.4397
lwrist -11.3937
lhand -6.30943 30.1839
lfingers 7.12502
lthumb 199.535 -120.777
rfemur -37.3228 9.49834 10.0073
rtibia 49.0289
rfoot -15.302 -11.9275
rtoes -8.96189
lfemur -48.3803 -9.35368 -17.3875
ltibia 28.8437
lfoot -6.10167 13.1723
ltoes -18.1834
1136
root -14.01 17.1495 26.3401 -515.118 38.6994 533.941
lowerback -18.0158 -4.98355 -5.04919
upperback -15.5549 -3.50413 1.05993
thorax -6.44412 -0.188502 3.40119
lowerneck 0.806279 -17.7233 -22.3656
upperneck 22.443 -24.1378 7.69176
head 10.85 -12.278 3.19507
rclavicle 2.56929e-014 -5.46658e-014
rhumerus -44.6956 9.90697 -90.0261
rradius 29.4351
rwrist 9.58885
rhand -15.3041 -14.8112
rfingers 7.12502
rthumb 190.871 135.49
lclavicle 2.56929e-014 -5.46658e-014
lhumerus -49.6511 8.7777 78.4778
lradius 24.3269
lwrist -11.7726
lhand -6.71957 30.2167
lfingers 7.12502
lthumb 199.141 -120.705
rfemur -38.336 8.97768 10.0322
rtibia 50.9268
rfoot -13.7286 -11.978
rtoes -7.55115
lfemur -48.0866 -9.34233 -17.7184
ltibia 28.96
lfoot -6.38955 13.5462
ltoes -17.775
1137
root -14.0097 17.1544 26.2544 -515.164 39.1628 533.864
lowerback -17.9972 -4.91627 -5.01365
upperback -15.5083 -3.4441 1.02846
thorax -6.4093 -0.175513 3.35688
lowerneck 0.663483 -17.6663 -22.2372
upperneck 22.1975 -24.0108 7.57175
head 10.7268 -12.2236 3.16032
rclavicle -4.84538e-014 1.2921e-014
rhumerus -44.5743 9.22567 -89.397
rradius 28.4972
rwrist 10.3922
rhand -15.0504 -14.7586
rfingers 7.12502
rthumb 191.116 135.556
lclavicle -4.84538e-014 1.2921e-014
lhumerus -49.4131 8.62223 78.5005
lradius 24.3211
lwrist -11.9711
lhand -7.15795 30.3423
lfingers 7.12502
lthumb 198.719 -120.538
rfemur -39.4071 8.47101 10.0671
rtibia 52.7813
rfoot -12.0578 -12.1003
rtoes -5.70087
lfemur -47.81 -9.28966 -18.0625
ltibia 29.0441
lfoot -6.66675 13.8731
ltoes -17.4639
1138
root -14.0084 17.1599 26.1709 -515.198 39.6151 533.783
lowerback -17.9873 -4.86267 -4.98552
upperback -15.465 -3.39918 1.00576
thorax -6.37163 -0.168327 3.32377
lowerneck 0.503782 -17.603 -22.1181
upperneck 21.9833 -23.8688 7.4387
head 10.6167 -12.1627 3.12279
rclavicle -8.83598e-014 -4.9895e-014
rhumerus -44.4748 8.58804 -88.777
rradius 27.6396
rwrist 11.2918
rhand -14.7386 -14.7702
rfingers 7.12502
rthumb 191.417 135.561
lclavicle -8.83598e-014 -4.9895e-014
lhumerus -49.2039 8.3851 78.5925
lradius 24.4115
lwrist -11.9597
lhand -7.61806 30.5488
lfingers 7.12502
lthumb 198.276 -120.29
rfemur -40.5027 7.99297 10.113
rtibia 54.559
rfoot -10.3643 -12.2972
rtoes -3.62115
lfemur -47.5345 -9.20774 -18.4168
ltibia 29.0845
lfoot -6.93254 14.1564
ltoes -17.1969
1139
root -14.006 17.1657 26.0897 -515.223 40.0489 533.701
lowerback -17.9727 -4.82842 -4.96939
upperback -15.4311 -3.37657 0.998262
thorax -6.34358 -0.169088 3.3109
lowerneck 0.328205 -17.5311 -22.0043
upperneck 21.8018 -23.7072 7.28623
head 10.5176 -12.0935 3.08086
rclavicle -1.14401e-013 -2.98177e-014
rhumerus -44.4069 8.00234 -88.1708
rradius 26.8666
rwrist 12.2539
rhand -14.4007 -14.8079
rfingers 7.12502
rthumb 191.743 135.541
lclavicle -1.14401e-013 -2.98177e-014
lhumerus -49.0304 8.07856 78.7464
lradius 24.5929
lwrist -11.73
lhand -8.079 30.8146
lfingers 7.12502
lthumb 197.833 -119.983
rfemur -41.6071 7.54796 10.1778
rtibia 56.2432
rfoot -8.71831 -12.5751
rtoes -1.50354
lfemur -47.2476 -9.05894 -18.8092
ltibia 29.0753
lfoot -7.1793 14.3585
ltoes -17.1311
